<?xml version="1.0" encoding="UTF-8" standalone="no"?>
<!-- Created with Inkscape (http://www.inkscape.org/) -->

<svg
   width="540"
   height="230"
   viewBox="0 0 142.875 60.854168"
   version="1.1"
   id="svg12747"
   inkscape:version="1.1 (c68e22c387, 2021-05-23)"
   sodipodi:docname="logo_cacd_calcular.svg"
   xmlns:inkscape="http://www.inkscape.org/namespaces/inkscape"
   xmlns:sodipodi="http://sodipodi.sourceforge.net/DTD/sodipodi-0.dtd"
   xmlns="http://www.w3.org/2000/svg"
   xmlns:svg="http://www.w3.org/2000/svg">
  <sodipodi:namedview
     id="namedview12749"
     pagecolor="#505050"
     bordercolor="#eeeeee"
     borderopacity="1"
     inkscape:pageshadow="0"
     inkscape:pageopacity="0"
     inkscape:pagecheckerboard="0"
     inkscape:document-units="mm"
     showgrid="false"
     units="px"
     inkscape:zoom="0.72337262"
     inkscape:cx="-64.282223"
     inkscape:cy="230.17183"
     inkscape:window-width="2560"
     inkscape:window-height="1001"
     inkscape:window-x="-9"
     inkscape:window-y="-9"
     inkscape:window-maximized="1"
     inkscape:current-layer="layer1" />
  <defs
     id="defs12744" />
  <g
     inkscape:label="Camada 1"
     inkscape:groupmode="layer"
     id="layer1">
    <g
       id="g2668-29-2-3-3-1"
       transform="matrix(-0.48303965,0,0,-0.31918267,245.66312,118.29139)"
       style="fill:#ffc107;fill-opacity:1">
      <rect
         style="fill:#ffc107;fill-opacity:1;stroke:none;stroke-width:2.80339;stroke-linecap:round;stroke-linejoin:round;paint-order:fill markers stroke"
         id="rect8146-9"
         width="295.78317"
         height="190.65623"
         x="-508.57755"
         y="-370.60718"
         transform="scale(-1)" />
    </g>
    <g
       id="g15544"
       transform="translate(0.66265027,-0.21861665)">
      <g
         aria-label="calcular
notas_cacd"
         transform="scale(0.99968781,1.0003123)"
         id="text2048-4"
         style="font-size:16.4093px;line-height:0.75;font-family:Bahnschrift;-inkscape-font-specification:Bahnschrift;stroke-width:0.219768">
        <path
           d="m 54.288078,29.370162 q -1.185828,0 -2.035137,-0.448691 -0.841297,-0.456705 -1.281977,-1.322039 -0.440679,-0.865334 -0.440679,-2.083212 v -0.889371 q 0,-1.209865 0.440679,-2.059175 0.44068,-0.857321 1.281977,-1.306013 0.849309,-0.448692 2.035137,-0.448692 0.68105,0 1.281977,0.160247 0.608939,0.152235 1.08968,0.448692 0.480741,0.296457 0.801235,0.721112 v 0 l -1.418186,1.378124 v 0 q -0.30447,-0.280432 -0.7131,-0.432667 -0.40863,-0.160247 -0.857321,-0.160247 -0.833285,0 -1.289989,0.448692 -0.456704,0.440679 -0.456704,1.249927 v 0.889371 q 0,0.833285 0.456704,1.289989 0.456704,0.448692 1.289989,0.448692 0.456704,0 0.865334,-0.168259 0.40863,-0.16826 0.705087,-0.480742 v 0 l 1.418186,1.458249 v 0 q -0.328506,0.416642 -0.809247,0.713099 -0.480742,0.288445 -1.081668,0.44068 -0.600927,0.152234 -1.281977,0.152234 z"
           style="font-weight:bold;-inkscape-font-specification:'Bahnschrift Bold'"
           id="path16658" />
        <path
           d="m 63.51831,23.977849 q 0,-0.57689 -0.384593,-0.889372 -0.384593,-0.312481 -1.08968,-0.312481 -0.464717,0 -0.921421,0.152234 -0.456704,0.152235 -0.809248,0.424655 l -1.3621,-1.338063 q 0.496766,-0.568877 1.314026,-0.881359 0.81726,-0.320494 1.810792,-0.320494 1.08968,0 1.858866,0.368568 0.769186,0.360556 1.169804,1.057631 0.40863,0.689062 0.40863,1.666569 v 5.34424 H 63.51831 Z m -2.31557,5.392313 q -1.338063,0 -2.003089,-0.632976 -0.657013,-0.640988 -0.657013,-1.938989 0,-1.233902 0.737137,-1.850854 0.745149,-0.616951 2.227434,-0.616951 h 2.083212 l 0.112173,1.674582 h -2.187373 q -0.496765,0 -0.745148,0.200309 -0.248383,0.192296 -0.248383,0.592914 0,0.40863 0.312481,0.608939 0.312482,0.192296 0.945458,0.192296 0.881359,0 1.306014,-0.200309 0.432667,-0.200308 0.432667,-0.624963 l 0.168259,1.209865 q -0.04807,0.448692 -0.416642,0.761174 -0.360556,0.312482 -0.913408,0.472729 -0.54484,0.152234 -1.153779,0.152234 z"
           style="font-weight:bold;-inkscape-font-specification:'Bahnschrift Bold'"
           id="path16660" />
        <path
           d="m 69.872107,26.50174 q 0,0.304469 0.168259,0.472729 0.176272,0.160247 0.496766,0.160247 h 0.368569 v 2.115261 h -1.12173 q -1.001544,0 -1.554396,-0.576889 -0.552853,-0.57689 -0.552853,-1.626508 v -9.446565 h 2.195385 z"
           style="font-weight:bold;-inkscape-font-specification:'Bahnschrift Bold'"
           id="path16662" />
        <path
           d="m 75.945469,29.370162 q -1.185828,0 -2.035138,-0.448691 -0.841297,-0.456705 -1.281976,-1.322039 -0.44068,-0.865334 -0.44068,-2.083212 v -0.889371 q 0,-1.209865 0.44068,-2.059175 0.440679,-0.857321 1.281976,-1.306013 0.84931,-0.448692 2.035138,-0.448692 0.68105,0 1.281977,0.160247 0.608938,0.152235 1.08968,0.448692 0.480741,0.296457 0.801235,0.721112 v 0 l -1.418187,1.378124 v 0 q -0.304469,-0.280432 -0.713099,-0.432667 -0.40863,-0.160247 -0.857322,-0.160247 -0.833285,0 -1.289989,0.448692 -0.456704,0.440679 -0.456704,1.249927 v 0.889371 q 0,0.833285 0.456704,1.289989 0.456704,0.448692 1.289989,0.448692 0.456704,0 0.865334,-0.168259 0.40863,-0.16826 0.705087,-0.480742 v 0 l 1.418187,1.458249 v 0 q -0.328507,0.416642 -0.809248,0.713099 -0.480741,0.288445 -1.081667,0.44068 -0.600927,0.152234 -1.281977,0.152234 z"
           style="font-weight:bold;-inkscape-font-specification:'Bahnschrift Bold'"
           id="path16664" />
        <path
           d="m 85.1757,20.933154 h 2.187373 v 8.316823 H 85.1757 Z m -2.579977,5.055795 q 0,0.600927 0.336518,0.937446 0.344532,0.328506 0.961483,0.328506 0.616951,0 0.945458,-0.336519 0.336518,-0.344531 0.336518,-0.977507 l 0.112173,1.818804 q -0.232358,0.68105 -0.777198,1.145767 -0.536828,0.464716 -1.314026,0.464716 -1.338063,0 -2.067187,-0.857321 -0.729124,-0.865335 -0.729124,-2.443768 v -5.135919 h 2.195385 z"
           style="font-weight:bold;-inkscape-font-specification:'Bahnschrift Bold'"
           id="path16666" />
        <path
           d="m 91.721793,26.50174 q 0,0.304469 0.168259,0.472729 0.176272,0.160247 0.496766,0.160247 h 0.368568 v 2.115261 h -1.121729 q -1.001544,0 -1.554397,-0.576889 -0.552852,-0.57689 -0.552852,-1.626508 v -9.446565 h 2.195385 z"
           style="font-weight:bold;-inkscape-font-specification:'Bahnschrift Bold'"
           id="path16668" />
        <path
           d="m 98.772665,23.977849 q 0,-0.57689 -0.384593,-0.889372 -0.384593,-0.312481 -1.08968,-0.312481 -0.464716,0 -0.92142,0.152234 -0.456705,0.152235 -0.809248,0.424655 l -1.3621,-1.338063 q 0.496766,-0.568877 1.314026,-0.881359 0.81726,-0.320494 1.810792,-0.320494 1.08968,0 1.858866,0.368568 0.769186,0.360556 1.169802,1.057631 0.40863,0.689062 0.40863,1.666569 v 5.34424 h -1.995075 z m -2.31557,5.392313 q -1.338063,0 -2.003088,-0.632976 -0.657013,-0.640988 -0.657013,-1.938989 0,-1.233902 0.737136,-1.850854 0.745149,-0.616951 2.227435,-0.616951 h 2.083211 l 0.112173,1.674582 h -2.187372 q -0.496766,0 -0.745149,0.200309 -0.248383,0.192296 -0.248383,0.592914 0,0.40863 0.312482,0.608939 0.312482,0.192296 0.945458,0.192296 0.881358,0 1.306013,-0.200309 0.432667,-0.200308 0.432667,-0.624963 l 0.16826,1.209865 q -0.04807,0.448692 -0.416643,0.761174 -0.360556,0.312482 -0.913408,0.472729 -0.54484,0.152234 -1.153779,0.152234 z"
           style="font-weight:bold;-inkscape-font-specification:'Bahnschrift Bold'"
           id="path16670" />
        <path
           d="m 102.93108,20.933154 h 2.35563 v 8.316823 h -2.35563 z m 4.67921,2.31557 q -0.16024,-0.160247 -0.3926,-0.24037 -0.23236,-0.08012 -0.53683,-0.08012 -0.66503,0 -1.03359,0.432667 -0.36056,0.424655 -0.36056,1.185829 l -0.16826,-2.163336 q 0.34453,-0.745149 0.88937,-1.153779 0.55285,-0.416642 1.20987,-0.416642 0.5208,0 0.93744,0.168259 0.42466,0.160247 0.73714,0.480742 z"
           style="font-weight:bold;-inkscape-font-specification:'Bahnschrift Bold'"
           id="path16672" />
        <path
           d="m 50.770655,33.240129 h 2.195385 v 8.316823 h -2.195385 z m 4.807412,3.277053 q 0,-0.608939 -0.352543,-0.945458 -0.344531,-0.336519 -0.98552,-0.336519 -0.608939,0 -0.945457,0.344531 -0.328507,0.336519 -0.328507,0.95347 l -0.168259,-1.842841 q 0.37658,-0.785211 0.897383,-1.177816 0.528816,-0.392605 1.322039,-0.392605 1.314026,0 2.035137,0.889371 0.721112,0.881359 0.721112,2.499854 v 5.047783 h -2.195385 z"
           style="font-weight:bold;-inkscape-font-specification:'Bahnschrift Bold'"
           id="path16674" />
        <path
           d="m 63.285951,41.677137 q -1.137754,0 -1.947002,-0.424654 -0.801235,-0.424655 -1.22589,-1.233903 -0.416642,-0.81726 -0.416642,-1.963026 v -1.354088 q 0,-1.129742 0.416642,-1.930977 0.424655,-0.809248 1.22589,-1.22589 0.809248,-0.424655 1.947002,-0.424655 1.137754,0 1.93899,0.424655 0.809247,0.416642 1.22589,1.22589 0.424654,0.801235 0.424654,1.930977 v 1.378125 q 0,1.137754 -0.424654,1.947001 -0.416643,0.801236 -1.22589,1.225891 -0.801236,0.424654 -1.93899,0.424654 z m -0.008,-2.115261 q 0.665025,0 1.033593,-0.384593 0.368568,-0.392605 0.368568,-1.097692 v -1.378125 q 0,-0.697075 -0.368568,-1.081668 -0.368568,-0.384593 -1.033593,-0.384593 -0.657013,0 -1.025582,0.384593 -0.360556,0.384593 -0.360556,1.081668 v 1.378125 q 0,0.705087 0.360556,1.097692 0.360556,0.384593 1.025582,0.384593 z"
           style="font-weight:bold;-inkscape-font-specification:'Bahnschrift Bold'"
           id="path16676" />
        <path
           d="m 71.202156,41.597014 q -1.089681,0 -1.602471,-0.552853 -0.504778,-0.560864 -0.504778,-1.650544 v -8.573219 h 2.195384 v 8.028379 q 0,0.304469 0.120186,0.472728 0.120185,0.160247 0.352543,0.160247 h 0.54484 v 2.115262 z m -2.964571,-8.356885 h 4.070275 v 1.874891 h -4.070275 z"
           style="font-weight:bold;-inkscape-font-specification:'Bahnschrift Bold'"
           id="path16678" />
        <path
           d="m 78.80588,36.284823 q 0,-0.576889 -0.384593,-0.889371 -0.384593,-0.312482 -1.08968,-0.312482 -0.464717,0 -0.921421,0.152235 -0.456704,0.152235 -0.809248,0.424655 l -1.3621,-1.338063 q 0.496766,-0.568877 1.314026,-0.881359 0.81726,-0.320494 1.810792,-0.320494 1.08968,0 1.858866,0.368568 0.769186,0.360556 1.169804,1.057631 0.40863,0.689062 0.40863,1.666569 v 5.34424 H 78.80588 Z m -2.31557,5.392314 q -1.338063,0 -2.003089,-0.632976 -0.657013,-0.640988 -0.657013,-1.938989 0,-1.233903 0.737137,-1.850854 0.745149,-0.616951 2.227434,-0.616951 h 2.083212 l 0.112173,1.674582 h -2.187373 q -0.496765,0 -0.745148,0.200309 -0.248383,0.192296 -0.248383,0.592914 0,0.40863 0.312481,0.608939 0.312482,0.192296 0.945458,0.192296 0.881359,0 1.306014,-0.200309 0.432667,-0.200308 0.432667,-0.624963 L 78.974139,40.291 q -0.04807,0.448692 -0.416642,0.761174 -0.360556,0.312482 -0.913408,0.472729 -0.54484,0.152234 -1.153779,0.152234 z"
           style="font-weight:bold;-inkscape-font-specification:'Bahnschrift Bold'"
           id="path16680" />
        <path
           d="m 86.145194,41.677137 q -0.745149,0 -1.450236,-0.128197 -0.705087,-0.13621 -1.322039,-0.392606 -0.616951,-0.256395 -1.08968,-0.616951 v 0 l 1.354088,-1.690606 v 0 q 0.600926,0.384593 1.257939,0.592914 0.657013,0.208321 1.249928,0.208321 0.769186,0 1.19384,-0.16826 0.424655,-0.176271 0.424655,-0.480741 0,-0.280432 -0.184284,-0.424654 -0.184284,-0.144223 -0.472729,-0.200309 -0.288445,-0.0641 -0.809248,-0.112173 -0.144222,-0.01602 -0.296457,-0.03205 -0.144222,-0.01602 -0.296457,-0.03205 -0.03205,-0.008 -0.07211,-0.008 -0.03205,-0.008 -0.0641,-0.008 -0.929433,-0.120185 -1.490298,-0.296457 -0.560864,-0.176272 -0.95347,-0.673038 -0.384593,-0.504778 -0.384593,-1.458248 0,-0.833285 0.400618,-1.426199 0.400618,-0.592914 1.161791,-0.897383 0.761174,-0.312482 1.842842,-0.312482 0.632976,0 1.257939,0.128197 0.632976,0.128198 1.209865,0.368569 0.57689,0.24037 1.065643,0.576889 v 0 l -1.306013,1.594459 v 0 q -0.54484,-0.30447 -1.137754,-0.472729 -0.592914,-0.16826 -1.137755,-0.16826 -0.665025,0 -1.033593,0.152235 -0.368568,0.152235 -0.368568,0.424655 0,0.208321 0.192296,0.328506 0.200309,0.112173 0.488754,0.16826 0.296457,0.04807 0.857322,0.112173 0.07211,0.008 0.144222,0.01602 0.07211,0.008 0.144222,0.01602 0.03205,0.008 0.07211,0.008 0.04006,0 0.07211,0.008 0.969494,0.112173 1.578433,0.288444 0.608939,0.176272 1.033594,0.705088 0.432667,0.528815 0.432667,1.554396 0,0.865334 -0.416642,1.482285 -0.416643,0.616952 -1.217878,0.945458 -0.801236,0.320494 -1.930977,0.320494 z"
           style="font-weight:bold;-inkscape-font-specification:'Bahnschrift Bold'"
           id="path16682" />
        <path
           d="m 97.418576,41.556952 v 2.115261 h -6.986772 v -2.115261 z"
           style="font-weight:bold;-inkscape-font-specification:'Bahnschrift Bold'"
           id="path16684" />
        <path
           d="m 102.13785,41.677137 q -1.18583,0 -2.03514,-0.448691 -0.841293,-0.456705 -1.281972,-1.322039 -0.44068,-0.865334 -0.44068,-2.083212 v -0.889371 q 0,-1.209865 0.44068,-2.059175 0.440679,-0.857322 1.281972,-1.306013 0.84931,-0.448692 2.03514,-0.448692 0.68105,0 1.28198,0.160247 0.60894,0.152235 1.08968,0.448692 0.48074,0.296457 0.80123,0.721111 v 0 l -1.41818,1.378125 v 0 q -0.30447,-0.280432 -0.7131,-0.432667 -0.40863,-0.160247 -0.85732,-0.160247 -0.83329,0 -1.28999,0.448692 -0.45671,0.440679 -0.45671,1.249927 v 0.889371 q 0,0.833285 0.45671,1.289989 0.4567,0.448692 1.28999,0.448692 0.4567,0 0.86533,-0.168259 0.40863,-0.16826 0.70509,-0.480742 v 0 l 1.41818,1.458249 v 0 q -0.3285,0.416642 -0.80924,0.713099 -0.48075,0.288445 -1.08167,0.44068 -0.60093,0.152234 -1.28198,0.152234 z"
           style="font-weight:bold;-inkscape-font-specification:'Bahnschrift Bold'"
           id="path16686" />
        <path
           d="m 111.36809,36.284823 q 0,-0.576889 -0.3846,-0.889371 -0.38459,-0.312482 -1.08968,-0.312482 -0.46471,0 -0.92142,0.152235 -0.4567,0.152235 -0.80925,0.424655 l -1.3621,-1.338063 q 0.49677,-0.568877 1.31403,-0.881359 0.81726,-0.320494 1.81079,-0.320494 1.08968,0 1.85887,0.368568 0.76918,0.360556 1.1698,1.057631 0.40863,0.689062 0.40863,1.666569 v 5.34424 h -1.99507 z m -2.31557,5.392314 q -1.33807,0 -2.00309,-0.632976 -0.65702,-0.640988 -0.65702,-1.938989 0,-1.233903 0.73714,-1.850854 0.74515,-0.616951 2.22744,-0.616951 h 2.08321 l 0.11217,1.674582 H 109.365 q -0.49677,0 -0.74515,0.200309 -0.24838,0.192296 -0.24838,0.592914 0,0.40863 0.31248,0.608939 0.31248,0.192296 0.94546,0.192296 0.88135,0 1.30601,-0.200309 0.43267,-0.200308 0.43267,-0.624963 l 0.16826,1.209865 q -0.0481,0.448692 -0.41665,0.761174 -0.36055,0.312482 -0.91341,0.472729 -0.54484,0.152234 -1.15377,0.152234 z"
           style="font-weight:bold;-inkscape-font-specification:'Bahnschrift Bold'"
           id="path16688" />
        <path
           d="m 119.04392,41.677137 q -1.18583,0 -2.03514,-0.448691 -0.84129,-0.456705 -1.28197,-1.322039 -0.44068,-0.865334 -0.44068,-2.083212 v -0.889371 q 0,-1.209865 0.44068,-2.059175 0.44068,-0.857322 1.28197,-1.306013 0.84931,-0.448692 2.03514,-0.448692 0.68105,0 1.28198,0.160247 0.60894,0.152235 1.08968,0.448692 0.48074,0.296457 0.80123,0.721111 v 0 l -1.41818,1.378125 v 0 q -0.30447,-0.280432 -0.7131,-0.432667 -0.40863,-0.160247 -0.85732,-0.160247 -0.83329,0 -1.28999,0.448692 -0.45671,0.440679 -0.45671,1.249927 v 0.889371 q 0,0.833285 0.45671,1.289989 0.4567,0.448692 1.28999,0.448692 0.4567,0 0.86533,-0.168259 0.40863,-0.16826 0.70509,-0.480742 v 0 l 1.41818,1.458249 v 0 q -0.3285,0.416642 -0.80924,0.713099 -0.48074,0.288445 -1.08167,0.44068 -0.60093,0.152234 -1.28198,0.152234 z"
           style="font-weight:bold;-inkscape-font-specification:'Bahnschrift Bold'"
           id="path16690" />
        <path
           d="m 128.18602,29.90699 h 2.19538 v 11.649962 h -2.19538 z m -1.93098,11.770147 q -0.88136,0 -1.51433,-0.424654 -0.62497,-0.424655 -0.95347,-1.225891 -0.32851,-0.809247 -0.32851,-1.947001 V 36.74954 q 0,-1.145767 0.32851,-1.963027 0.3285,-0.81726 0.95347,-1.241914 0.63297,-0.424655 1.51433,-0.424655 0.66503,0 1.20987,0.400617 0.55285,0.392606 0.88937,1.12173 l -0.16826,1.842841 q 0,-0.424654 -0.14423,-0.721112 -0.14422,-0.296457 -0.42465,-0.448691 -0.27242,-0.160247 -0.66503,-0.160247 -0.61695,0 -0.96148,0.424654 -0.33652,0.416643 -0.33652,1.177816 v 1.322039 q 0,0.745148 0.33652,1.153779 0.34453,0.40863 0.96148,0.40863 0.39261,0 0.66503,-0.152235 0.28043,-0.152235 0.42465,-0.44068 0.14423,-0.288444 0.14423,-0.697074 l 0.11217,1.898927 q -0.2564,0.68105 -0.78521,1.057631 -0.52882,0.368568 -1.25794,0.368568 z"
           style="font-weight:bold;-inkscape-font-specification:'Bahnschrift Bold'"
           id="path16692" />
      </g>
      <g
         aria-label="%"
         transform="scale(0.99968781,1.0003123)"
         id="text15171"
         style="font-size:47.7237px;line-height:1.25;font-family:Bahnschrift;-inkscape-font-specification:Bahnschrift;stroke-width:0.639155">
        <path
           d="m 32.254742,13.6835 h 4.171164 L 18.016861,47.565464 h -4.171164 z m 1.444761,34.231503 q -2.7031,0 -4.171163,-1.561274 -1.468064,-1.584576 -1.468064,-4.404189 v -2.912823 q 0,-2.819614 1.468064,-4.380887 1.468063,-1.584576 4.171163,-1.584576 2.7031,0 4.171163,1.584576 1.468063,1.561273 1.468063,4.427492 v 2.866218 q 0,2.842916 -1.491365,4.404189 -1.468063,1.561274 -4.147861,1.561274 z m 0,-3.705112 q 0.81559,0 1.281642,-0.512657 0.466052,-0.535959 0.466052,-1.514668 v -3.42548 q 0,-0.932104 -0.466052,-1.444761 -0.466052,-0.512657 -1.281642,-0.512657 -0.838893,0 -1.304945,0.512657 -0.442749,0.512657 -0.442749,1.468063 v 3.402178 q 0,1.002011 0.442749,1.514668 0.466052,0.512657 1.304945,0.512657 z M 16.851731,28.201013 q -2.7031,0 -4.171163,-1.561274 -1.468063,-1.584576 -1.468063,-4.404189 v -2.912823 q 0,-2.819614 1.468063,-4.380887 1.468063,-1.584576 4.171163,-1.584576 2.703101,0 4.171164,1.584576 1.468063,1.561273 1.468063,4.427492 v 2.866218 q 0,2.842916 -1.491366,4.404189 -1.468063,1.561274 -4.147861,1.561274 z m 0,-3.705112 q 0.815591,0 1.281643,-0.512657 0.466051,-0.535959 0.466051,-1.514668 v -3.42548 q 0,-0.932104 -0.466051,-1.444761 -0.466052,-0.512657 -1.281643,-0.512657 -0.838893,0 -1.304945,0.512657 -0.442749,0.512657 -0.442749,1.468063 v 3.402178 q 0,1.002011 0.442749,1.514668 0.466052,0.512657 1.304945,0.512657 z"
           id="path18005" />
      </g>
    </g>
  </g>
</svg>
